<?xml version="1.0" encoding="iso-8859-1"?><!-- Generator: Adobe Illustrator 16.0.0, SVG Export Plug-In . SVG Version: 6.00 Build 0) --><!DOCTYPE svg PUBLIC "-//W3C//DTD SVG 1.1//EN" "http://www.w3.org/Graphics/SVG/1.1/DTD/svg11.dtd"><svg version="1.1" id="Layer_1" xmlns="http://www.w3.org/2000/svg" xmlns:xlink="http://www.w3.org/1999/xlink" x="0px" y="0px" width="157.849px" height="184.029px" viewBox="-0.001 0 157.849 184.029" style="enable-background:new -0.001 0 157.849 184.029;" xml:space="preserve"><g><linearGradient id="SVGID_1_" gradientUnits="userSpaceOnUse" x1="-967.0066" y1="1120.1736" x2="-967.0066" y2="1304.2029" gradientTransform="matrix(1 0 0 -1 1045.9302 1304.2026)"><stop offset="0" style="stop-color:#67974A"/><stop offset="0.4946" style="stop-color:#82B750"/></linearGradient><path style="fill:url(#SVGID_1_);" d="M156.622,64.917c-2.793-15.228-9.461-28.529-19.994-39.88	c-4.446-4.792-9.428-8.956-14.926-12.491C111.46,5.962,100.303,1.928,88.204,0.499C86.729,0.324,85.233,0.347,83.779,0	c-3.479,0-6.96,0-10.439,0c-0.113,0.263-0.355,0.167-0.547,0.185c-2.688,0.237-5.363,0.543-8.016,1.046	C45.39,4.903,29.469,14.422,17.146,29.798C7.01,42.443,1.428,56.949,0.222,73.123c-0.584,7.839-0.018,15.605,1.7,23.268	c1.276,5.7,3.182,11.207,5.744,16.471c0.225,0.448,0.447,0.896,0.676,1.344c4.209,8.288,9.623,15.674,16.408,22.053	c3.572,3.358,7.39,6.396,11.523,9.021c12.664,8.038,26.488,12.253,41.506,12.441c0.922,0.013,1.173,0.24,1.167,1.182	c-0.042,8.038-0.024,16.077-0.022,24.116c0.001,0.312,0.025,0.623,0.043,1.011c0.26-0.106,0.423-0.166,0.58-0.24	c15.097-7.093,28.959-16.056,41.317-27.291c2.459-2.235,4.812-4.577,7.075-7.016c0.969-1.043,1.93-2.104,2.901-3.146	c1.5-1.604,2.798-3.396,4.212-5.085c1.633-1.948,3.099-4.019,4.545-6.103c3.197-4.606,6.052-9.411,8.452-14.487	c1.214-2.566,2.37-5.152,3.393-7.799c0.034-0.05,0.08-0.094,0.102-0.148c2.788-7.248,4.575-14.748,5.526-22.443	c0.332-2.68,0.547-5.377,0.683-8.072C158.043,76.397,157.668,70.627,156.622,64.917z M54.969,113.3	c-1.355,0.368-2.737,0.579-4.118,0.781c-1.068,0.156-1.764-0.437-2.162-1.4c0.004-2.971,0.007-5.938,0.011-8.908	c0.052-0.874-0.3-1.811,0.4-2.582c0.347-0.382,0.74-0.644,1.271-0.776c1.555-0.392,3.131-0.705,4.547-1.55	c2.608-1.557,4.231-3.804,4.951-6.733c0.112-0.461,0.219-0.925,0.326-1.388c-6.262-0.012-12.522-0.023-18.784-0.031	c-0.542-0.001-1.076-0.02-1.604-0.166c-1.596-0.442-2.818-1.898-2.82-3.545c-0.012-9.468,0.007-18.937,0.014-28.405	c-0.131-1.513,0.001-2.931,1.273-4.012c0.691-0.585,1.45-0.939,2.358-0.939c9.207-0.002,18.414,0.005,27.621-0.005	c2.437-0.004,4.454,2.453,3.674,4.855c0.188,0.454,0.153,0.934,0.153,1.408c0.002,10.317,0.06,20.638-0.019,30.955	c-0.051,6.847-2.717,12.605-7.729,17.274c-0.262,0.243-0.515,0.496-0.771,0.744C60.965,110.867,58.155,112.438,54.969,113.3z M105.905,112.642c-0.115,0.031-0.232,0.064-0.351,0.098c-0.066,0.038-0.133,0.076-0.199,0.113c-1.782,0.504-3.58,0.922-5.418,1.19	c-1.402,0.206-2.462-0.586-2.479-1.996c-0.014-0.988-0.021-1.978-0.029-2.967c0.017-1.771,0.034-3.542,0.051-5.312	c-0.008-0.391-0.022-0.779-0.021-1.168c0.002-1.36,0.525-1.934,2.216-2.32c2.144-0.491,4.161-1.183,5.83-2.732	c2.003-1.86,3.014-4.182,3.474-6.806c-5.784-0.012-11.566-0.022-17.352-0.033c-0.629-0.001-1.259,0.008-1.889-0.003	c-2.362-0.039-3.979-1.672-3.979-4.047c0.003-9.351,0.016-18.701,0.022-28.053c0-0.09-0.01-0.18-0.016-0.27	c-0.182-1.75,0.321-3.184,1.876-4.156c0.604-0.38,1.261-0.536,1.956-0.536c9.146-0.005,18.291,0.003,27.438-0.008	c2.436-0.003,4.452,2.454,3.673,4.856c0.186,0.454,0.152,0.933,0.152,1.407c0,10.335,0.006,20.67-0.003,31.006	c-0.008,9.233-5.794,17.873-14.322,21.42C106.32,112.417,106.115,112.536,105.905,112.642c0.152,0.188,0.334,0.24,0.523,0.247	C106.239,112.883,106.056,112.83,105.905,112.642z"/><path style="fill:#FFFFFF;" d="M105.355,112.853c-1.782,0.504-3.58,0.922-5.418,1.19c-1.402,0.206-2.462-0.586-2.479-1.996	c-0.014-0.988-0.021-1.978-0.029-2.967c0.017-1.771,0.034-3.542,0.051-5.312c0.51-1.183,1.614-1.396,2.691-1.641	c4.998-1.128,8.061-4.392,8.781-9.441c0.09-0.63,0.478-1.293,0.023-1.943c-5.784-0.012-11.566-0.022-17.352-0.033	c-0.629-0.001-1.26,0.008-1.889-0.003c-2.362-0.039-3.979-1.672-3.979-4.047c0.003-9.351,0.016-18.701,0.022-28.053	c0-0.09-0.01-0.18-0.016-0.27c0.252-0.109,0.271-0.374,0.383-0.577c0.781-1.395,1.947-2.146,3.571-2.146	c9.077,0.002,18.154-0.003,27.23,0.005c1.848,0.001,3.232,1.082,3.758,2.874c0.186,0.454,0.152,0.933,0.152,1.407	c0,10.335,0.005,20.67-0.003,31.006c-0.008,9.233-5.794,17.873-14.322,21.42c-0.218,0.09-0.422,0.209-0.632,0.314	c-0.116,0.031-0.233,0.064-0.352,0.098C105.488,112.777,105.421,112.815,105.355,112.853z"/><path style="fill:#FFFFFF;" d="M63.566,108.877c-2.601,1.99-5.411,3.562-8.597,4.423c-1.355,0.368-2.737,0.579-4.118,0.781	c-1.068,0.156-1.764-0.437-2.162-1.401c0.004-2.97,0.007-5.938,0.011-8.907c0.49-1.139,1.539-1.373,2.591-1.615	c5.076-1.171,7.987-4.199,8.856-9.304c0.115-0.679,0.5-1.4,0.05-2.11c-6.262-0.012-12.522-0.023-18.784-0.031	c-0.542-0.001-1.076-0.02-1.604-0.166c-1.596-0.442-2.818-1.898-2.82-3.545c-0.012-9.468,0.007-18.937,0.014-28.405	c0.676-1.766,1.825-2.966,3.83-2.97c9.143-0.018,18.287-0.013,27.43-0.003c1.775,0.002,3.174,1.129,3.668,2.872	c0.188,0.454,0.153,0.934,0.153,1.408c0.002,10.317,0.06,20.638-0.019,30.955c-0.051,6.847-2.717,12.605-7.729,17.274	C64.076,108.376,63.823,108.629,63.566,108.877z"/><path style="fill:#6FA14D;" d="M71.929,58.494c-0.494-1.743-1.893-2.87-3.668-2.872c-9.143-0.01-18.287-0.015-27.43,0.003	c-2.005,0.004-3.154,1.204-3.83,2.97c-0.131-1.513,0.001-2.931,1.273-4.012c0.691-0.585,1.45-0.939,2.358-0.939	c9.207-0.002,18.414,0.005,27.621-0.006C70.692,53.635,72.709,56.092,71.929,58.494z"/><path style="fill:#6FA14D;" d="M120.709,58.494c-0.524-1.792-1.91-2.873-3.757-2.874c-9.077-0.008-18.154-0.003-27.231-0.005	c-1.624,0-2.79,0.751-3.571,2.146c-0.112,0.203-0.131,0.468-0.383,0.577c-0.182-1.75,0.321-3.184,1.876-4.156	c0.604-0.38,1.261-0.536,1.956-0.536c9.146-0.005,18.291,0.003,27.438-0.008C119.472,53.635,121.49,56.092,120.709,58.494z"/><path style="fill:#6FA14D;" d="M108.977,90.742c0.453,0.65,0.065,1.313-0.023,1.943c-0.722,5.051-3.783,8.313-8.781,9.441	c-1.077,0.243-2.183,0.458-2.691,1.641c-0.008-0.39-0.022-0.778-0.021-1.167c0.002-1.36,0.525-1.934,2.216-2.32	c2.144-0.491,4.161-1.183,5.83-2.732C107.506,95.687,108.517,93.366,108.977,90.742z"/><path style="fill:#6FA14D;" d="M60.197,90.742c0.45,0.71,0.065,1.433-0.05,2.11c-0.869,5.104-3.78,8.133-8.856,9.304	c-1.052,0.242-2.101,0.478-2.591,1.615c0.052-0.874-0.3-1.811,0.4-2.582c0.347-0.382,0.74-0.644,1.271-0.776	c1.555-0.392,3.131-0.705,4.547-1.55c2.608-1.557,4.231-3.804,4.951-6.733C59.983,91.669,60.088,91.205,60.197,90.742z"/><path style="fill:#77AB50;" d="M105.355,112.853c0.066-0.037,0.133-0.075,0.199-0.113	C105.488,112.777,105.421,112.815,105.355,112.853z"/></g></svg>